<?xml version="1.0" standalone="no"?>
<!DOCTYPE svg PUBLIC "-//W3C//DTD SVG 20010904//EN"
 "http://www.w3.org/TR/2001/REC-SVG-20010904/DTD/svg10.dtd">
<svg version="1.0" xmlns="http://www.w3.org/2000/svg"
 width="471.000000pt" height="348.000000pt" viewBox="0 0 471.000000 348.000000"
 preserveAspectRatio="xMidYMid meet">
<metadata>
Created by potrace 1.10, written by Peter Selinger 2001-2011
</metadata>
<g transform="translate(0.000000,348.000000) scale(0.100000,-0.100000)"
fill="#000000" stroke="none">
<path d="M0 1835 l0 -1645 2235 0 2235 0 0 1645 0 1645 -2235 0 -2235 0 0
-1645z m1991 696 c14 -17 16 -46 14 -198 -1 -98 -6 -186 -10 -195 -4 -12 -19
-18 -39 -19 -17 0 -69 -1 -116 -2 l-85 -2 -5 -563 c-3 -362 -9 -563 -15 -565
-7 -1 -11 199 -13 581 l-2 584 130 -4 130 -3 0 60 0 60 -497 -3 c-330 -2 -500
1 -507 8 -7 7 150 10 497 10 l507 0 0 55 0 55 -505 0 c-330 0 -505 3 -505 10
0 7 175 10 505 10 l505 0 0 58 0 57 -510 0 -510 0 0 -190 0 -190 130 3 130 3
0 -578 -1 -578 121 -3 120 -3 0 586 c0 389 3 585 10 585 7 0 10 -195 10 -582
l-1 -583 56 -3 55 -3 0 588 c0 400 3 584 10 577 7 -7 10 -203 8 -587 l-3 -577
58 0 c31 0 57 -4 57 -10 0 -5 -9 -10 -20 -11 -61 -3 -78 -2 -93 4 -9 3 -18 3
-21 -1 -2 -4 -55 -6 -118 -4 -124 3 -224 3 -241 -1 -6 -1 -16 9 -24 23 -10 20
-13 136 -12 574 0 301 -2 550 -3 552 -2 1 -55 4 -118 5 -93 1 -117 4 -126 18
-14 19 -9 380 5 394 19 19 88 22 549 20 465 -2 477 -3 493 -22z m1011 10 c23
-5 40 -5 44 1 3 5 10 5 17 0 10 -8 54 -23 77 -26 3 -1 47 -26 98 -56 90 -52
142 -93 142 -111 0 -5 7 -6 15 -3 9 4 15 0 15 -9 0 -9 6 -20 13 -24 7 -4 23
-25 37 -45 14 -21 28 -38 33 -38 4 0 7 -6 7 -13 0 -7 9 -23 19 -34 11 -12 17
-23 14 -27 -3 -3 3 -18 13 -33 10 -15 19 -30 19 -33 0 -3 3 -9 7 -15 9 -14 27
-81 40 -145 12 -61 18 -310 8 -310 -4 0 -7 -6 -7 -12 0 -48 -38 -165 -78 -240
-53 -101 -197 -268 -244 -283 -11 -3 -21 -11 -21 -16 0 -5 -6 -9 -14 -9 -7 0
-24 -8 -37 -18 -13 -10 -42 -23 -64 -29 -22 -7 -63 -19 -92 -27 -43 -13 -126
-16 -505 -17 -254 -1 -466 3 -483 8 l-30 9 -2 635 c-1 349 -3 694 -4 767 -1
85 3 138 10 145 6 6 30 13 53 16 66 9 856 2 900 -8z m-1992 -51 c0 -5 -5 -10
-11 -10 -5 0 -7 5 -4 10 3 6 8 10 11 10 2 0 4 -4 4 -10z m544 -3 c14 -13 10
-37 -6 -37 -5 0 -8 6 -5 13 2 6 -3 17 -12 24 -12 9 -12 12 -3 13 7 0 19 -6 26
-13z m301 -37 c-9 -29 -21 -24 -19 8 2 45 4 48 15 29 6 -9 7 -26 4 -37z m65
25 c14 -19 14 -19 -2 -6 -10 7 -18 18 -18 24 0 6 1 8 3 6 1 -2 9 -13 17 -24z
m-915 -14 c3 -5 1 -12 -5 -16 -5 -3 -10 1 -10 9 0 18 6 21 15 7z m714 -7 c2
-2 2 -7 -2 -10 -3 -3 -16 2 -29 11 l-23 17 25 -7 c14 -4 27 -9 29 -11z m-249
-2 c0 -5 -7 -9 -15 -9 -8 0 -12 4 -9 9 3 4 9 8 15 8 5 0 9 -4 9 -8z m130 -2
c0 -5 -4 -10 -10 -10 -5 0 -10 5 -10 10 0 6 5 10 10 10 6 0 10 -4 10 -10z m35
0 c3 -5 -1 -10 -10 -10 -9 0 -13 5 -10 10 3 6 8 10 10 10 2 0 7 -4 10 -10z
m-405 -4 c0 -3 -4 -8 -10 -11 -5 -3 -10 -1 -10 4 0 6 5 11 10 11 6 0 10 -2 10
-4z m10 -86 c0 -5 -2 -10 -4 -10 -3 0 -8 5 -11 10 -3 6 -1 10 4 10 6 0 11 -4
11 -10z m317 -23 c2 -15 -1 -27 -7 -27 -6 0 -8 5 -5 11 4 5 -1 19 -10 29 -16
17 -16 18 1 16 11 -2 19 -13 21 -29z m96 -27 c-9 -10 -20 24 -15 44 6 19 7 18
12 -9 4 -16 5 -32 3 -35z m201 37 c-3 -40 -4 -42 -14 -27 -14 22 -12 52 3 48
6 -3 11 -12 11 -21z m56 13 c0 -5 -2 -10 -4 -10 -3 0 -8 5 -11 10 -3 6 -1 10
4 10 6 0 11 -4 11 -10z m20 -26 c0 -8 -4 -13 -9 -10 -5 4 -12 0 -14 -6 -4 -8
-6 -7 -6 4 -1 14 6 21 27 27 1 1 2 -6 2 -15z m-485 -14 c3 -5 1 -10 -4 -10 -6
0 -11 5 -11 10 0 6 2 10 4 10 3 0 8 -4 11 -10z m-337 -87 c-10 -2 -26 -2 -35
0 -10 3 -2 5 17 5 19 0 27 -2 18 -5z m180 0 c-16 -2 -40 -2 -55 0 -16 2 -3 4
27 4 30 0 43 -2 28 -4z m105 0 c-7 -2 -21 -2 -30 0 -10 3 -4 5 12 5 17 0 24
-2 18 -5z m80 0 c-7 -2 -21 -2 -30 0 -10 3 -4 5 12 5 17 0 24 -2 18 -5z m50 0
c-7 -2 -19 -2 -25 0 -7 3 -2 5 12 5 14 0 19 -2 13 -5z m50 0 c-7 -2 -19 -2
-25 0 -7 3 -2 5 12 5 14 0 19 -2 13 -5z m94 1 c-3 -3 -12 -4 -19 -1 -8 3 -5 6
6 6 11 1 17 -2 13 -5z m86 -1 c-7 -2 -19 -2 -25 0 -7 3 -2 5 12 5 14 0 19 -2
13 -5z m114 1 c-3 -3 -12 -4 -19 -1 -8 3 -5 6 6 6 11 1 17 -2 13 -5z m-408
-55 c-20 -12 -22 -4 -8 23 12 21 13 21 17 4 2 -10 -2 -22 -9 -27z m124 19 c7
-25 3 -33 -12 -23 -13 8 -15 45 -2 45 5 0 11 -10 14 -22z m284 -10 c-3 -7 -5
-2 -5 12 0 14 2 19 5 13 2 -7 2 -19 0 -25z m-167 1 c0 -5 -4 -9 -10 -9 -5 0
-10 7 -10 16 0 8 5 12 10 9 6 -3 10 -10 10 -16z m234 0 c-8 -14 -24 -10 -24 6
0 9 6 12 15 9 8 -4 12 -10 9 -15z m-904 1 c0 -5 -5 -10 -11 -10 -5 0 -7 5 -4
10 3 6 8 10 11 10 2 0 4 -4 4 -10z m497 -37 c-4 -17 -4 -17 -12 0 -4 9 -4 25
0 35 8 16 8 16 12 0 3 -10 3 -26 0 -35z m228 37 c3 -5 -1 -10 -10 -10 -9 0
-13 5 -10 10 3 6 8 10 10 10 2 0 7 -4 10 -10z m-455 -20 c0 -5 -2 -10 -4 -10
-3 0 -8 5 -11 10 -3 6 -1 10 4 10 6 0 11 -4 11 -10z m50 -591 c0 -373 -3 -569
-10 -569 -7 0 -10 199 -10 576 0 381 3 573 10 569 6 -4 10 -207 10 -576z m-73
549 c-3 -8 -6 -5 -6 6 -1 11 2 17 5 13 3 -3 4 -12 1 -19z m30 0 c-3 -8 -6 -5
-6 6 -1 11 2 17 5 13 3 -3 4 -12 1 -19z m233 -18 c0 -5 -4 -10 -10 -10 -5 0
-10 5 -10 10 0 6 5 10 10 10 6 0 10 -4 10 -10z m-283 -22 c-3 -8 -6 -5 -6 6
-1 11 2 17 5 13 3 -3 4 -12 1 -19z m30 0 c-3 -8 -6 -5 -6 6 -1 11 2 17 5 13 3
-3 4 -12 1 -19z m358 -28 c3 -5 1 -10 -4 -10 -6 0 -11 5 -11 10 0 6 2 10 4 10
3 0 8 -4 11 -10z m35 -50 c0 -11 -2 -20 -4 -20 -2 0 -6 9 -9 20 -3 11 -1 20 4
20 5 0 9 -9 9 -20z m10 -40 c0 -5 -2 -10 -4 -10 -3 0 -8 5 -11 10 -3 6 -1 10
4 10 6 0 11 -4 11 -10z m-289 -33 c-10 -9 -11 -8 -5 6 3 10 9 15 12 12 3 -3 0
-11 -7 -18z m-121 -22 c0 -8 -4 -15 -10 -15 -5 0 -7 7 -4 15 4 8 8 15 10 15 2
0 4 -7 4 -15z m-23 -67 c-3 -8 -6 -5 -6 6 -1 11 2 17 5 13 3 -3 4 -12 1 -19z
m393 2 c0 -11 -4 -20 -10 -20 -5 0 -10 9 -10 20 0 11 5 20 10 20 6 0 10 -9 10
-20z m-222 -51 c-16 -11 -37 -12 -22 -1 6 4 15 21 19 37 l9 30 4 -29 c2 -17
-2 -32 -10 -37z m262 37 c0 -3 -4 -8 -10 -11 -5 -3 -10 -1 -10 4 0 6 5 11 10
11 6 0 10 -2 10 -4z m-298 -88 c-7 -7 -12 -8 -12 -2 0 6 3 14 7 17 3 4 9 5 12
2 2 -3 -1 -11 -7 -17z m291 -28 c3 -11 1 -23 -4 -26 -5 -3 -9 1 -9 10 0 8 -3
22 -7 32 -4 11 -3 15 4 11 6 -4 13 -16 16 -27z m-113 -76 c0 -8 -5 -12 -10 -9
-6 4 -8 11 -5 16 9 14 15 11 15 -7z m97 -146 c-3 -8 -6 -5 -6 6 -1 11 2 17 5
13 3 -3 4 -12 1 -19z m10 -110 c-3 -7 -5 -2 -5 12 0 14 2 19 5 13 2 -7 2 -19
0 -25z m-240 -35 c-3 -10 -5 -2 -5 17 0 19 2 27 5 18 2 -10 2 -26 0 -35z
m-130 -175 c-3 -8 -6 -5 -6 6 -1 11 2 17 5 13 3 -3 4 -12 1 -19z m130 -25 c-3
-10 -5 -2 -5 17 0 19 2 27 5 18 2 -10 2 -26 0 -35z m-140 -95 c-3 -7 -5 -2 -5
12 0 14 2 19 5 13 2 -7 2 -19 0 -25z m123 7 c0 -8 -2 -15 -4 -15 -2 0 -6 7
-10 15 -3 8 -1 15 4 15 6 0 10 -7 10 -15z m-110 -29 c0 -3 -4 -8 -10 -11 -5
-3 -10 -1 -10 4 0 6 5 11 10 11 6 0 10 -2 10 -4z m1834 -55 c3 -4 -6 -6 -19
-3 -14 2 -25 6 -25 8 0 8 39 4 44 -5z"/>
<path d="M2070 1757 l0 -768 493 3 492 4 64 27 c90 38 168 83 211 123 21 20
44 41 52 47 32 26 107 135 136 197 62 134 82 226 82 380 0 125 -22 226 -71
329 -84 177 -184 283 -346 365 -110 55 -147 58 -650 60 l-463 1 0 -768z m650
729 c0 -26 -12 -46 -27 -46 -9 0 -11 5 -6 13 4 6 6 20 5 30 -2 10 3 17 12 17
9 0 16 -6 16 -14z m-470 -28 c-20 -19 -23 -19 -38 -5 -14 15 -13 15 6 10 15
-3 24 0 28 11 3 9 10 13 16 10 5 -3 0 -15 -12 -26z m743 25 c-7 -2 -19 -2 -25
0 -7 3 -2 5 12 5 14 0 19 -2 13 -5z m27 -18 c-14 -8 -29 -14 -35 -14 -5 0 1 6
15 14 14 8 30 14 35 14 6 0 -1 -6 -15 -14z m-842 -24 c-10 -14 -18 -17 -28
-10 -13 7 -12 9 1 9 9 0 20 7 23 16 4 9 9 14 12 11 3 -3 0 -15 -8 -26z m152
19 c0 -5 -4 -10 -10 -10 -5 0 -10 5 -10 10 0 6 5 10 10 10 6 0 10 -4 10 -10z
m250 0 c0 -5 -4 -10 -10 -10 -5 0 -10 5 -10 10 0 6 5 10 10 10 6 0 10 -4 10
-10z m190 0 c0 -5 -2 -10 -4 -10 -3 0 -8 5 -11 10 -3 6 -1 10 4 10 6 0 11 -4
11 -10z m315 1 c9 -16 -9 -20 -23 -5 -10 12 -10 14 2 14 8 0 17 -4 21 -9z
m-205 -11 c0 -5 -2 -10 -4 -10 -3 0 -8 5 -11 10 -3 6 -1 10 4 10 6 0 11 -4 11
-10z m-590 -10 c0 -5 -2 -10 -4 -10 -3 0 -8 5 -11 10 -3 6 -1 10 4 10 6 0 11
-4 11 -10z m740 -10 c8 -5 11 -10 5 -10 -5 0 -17 5 -25 10 -8 5 -10 10 -5 10
6 0 17 -5 25 -10z m160 0 c0 -5 -4 -10 -9 -10 -6 0 -13 5 -16 10 -3 6 1 10 9
10 9 0 16 -4 16 -10z m-1046 -47 c-17 -18 -29 -16 -15 1 8 10 9 16 1 21 -5 3
-10 11 -10 17 0 6 8 3 18 -8 15 -15 16 -21 6 -31z m966 26 c14 -11 19 -18 12
-14 -57 30 -65 35 -52 35 8 0 26 -10 40 -21z m45 11 c3 -6 -1 -7 -9 -4 -18 7
-21 14 -7 14 6 0 13 -4 16 -10z m-55 -43 c168 -72 281 -198 353 -397 29 -79
31 -95 32 -220 0 -117 -3 -144 -24 -205 -44 -128 -90 -204 -174 -289 -50 -49
-71 -77 -58 -73 11 3 19 2 16 -3 -3 -4 -14 -10 -25 -13 -11 -3 -18 -1 -14 4 8
13 4 12 -72 -25 -38 -19 -88 -37 -112 -41 -57 -9 -820 -10 -830 -1 -8 9 -14
1189 -6 1254 l5 43 422 -3 422 -3 65 -28z m77 8 c-4 -8 -12 -15 -19 -14 -10 0
-10 2 0 6 6 2 12 12 12 21 0 8 3 13 6 9 4 -3 4 -13 1 -22z m78 5 c3 -5 2 -10
-4 -10 -5 0 -13 5 -16 10 -3 6 -2 10 4 10 5 0 13 -4 16 -10z m35 -35 c0 -8 -4
-15 -10 -15 -5 0 -10 7 -10 15 0 8 5 15 10 15 6 0 10 -7 10 -15z m-1140 -14
c0 -6 -4 -13 -10 -16 -5 -3 -10 1 -10 9 0 9 5 16 10 16 6 0 10 -4 10 -9z
m1100 -5 c1 12 40 -36 40 -48 0 -5 -7 -3 -15 6 -8 8 -15 19 -15 25 0 6 -3 10
-7 10 -20 -3 -33 2 -33 12 0 8 5 8 15 -1 8 -7 15 -9 15 -4z m113 -52 c-3 -8
-7 -14 -10 -14 -3 0 -3 6 0 13 2 6 -5 23 -17 37 l-21 25 27 -24 c15 -13 24
-29 21 -37z m-45 5 c-3 -8 -7 -3 -11 10 -4 17 -3 21 5 13 5 -5 8 -16 6 -23z
m-1198 -48 c-8 -14 -9 -14 -10 4 0 11 -3 31 -6 45 -6 24 -5 23 10 -4 11 -19
13 -33 6 -45z m1208 4 c-3 -3 -9 2 -12 12 -6 14 -5 15 5 6 7 -7 10 -15 7 -18z
m92 -10 c7 -8 8 -15 2 -15 -5 0 -15 7 -22 15 -7 8 -8 15 -2 15 5 0 15 -7 22
-15z m-1273 -42 c-3 -10 -5 -4 -5 12 0 17 2 24 5 18 2 -7 2 -21 0 -30z m1268
7 c3 -5 -1 -10 -9 -10 -9 0 -16 5 -16 10 0 6 4 10 9 10 6 0 13 -4 16 -10z m27
-22 c-7 -7 -12 -8 -12 -2 0 14 12 26 19 19 2 -3 -1 -11 -7 -17z m9 -55 c18
-25 27 -43 21 -39 -6 3 -25 27 -42 52 -16 25 -26 43 -20 39 5 -3 24 -27 41
-52z m39 -3 c6 -11 7 -20 2 -20 -6 0 -12 9 -15 20 -3 11 -3 20 -1 20 2 0 8 -9
14 -20z m-52 -35 c-3 -3 -9 2 -12 12 -6 14 -5 15 5 6 7 -7 10 -15 7 -18z m62
-39 c0 -3 -4 -8 -10 -11 -5 -3 -10 -1 -10 4 0 6 5 11 10 11 6 0 10 -2 10 -4z
m10 -46 c0 -5 -4 -10 -10 -10 -5 0 -10 5 -10 10 0 6 5 10 10 10 6 0 10 -4 10
-10z m18 -75 c-3 -3 -9 2 -12 12 -6 14 -5 15 5 6 7 -7 10 -15 7 -18z m-1413
-35 c3 -5 1 -10 -4 -10 -6 0 -11 5 -11 10 0 6 2 10 4 10 3 0 8 -4 11 -10z m32
-67 c-3 -10 -5 -2 -5 17 0 19 2 27 5 18 2 -10 2 -26 0 -35z m1370 -15 c-3 -8
-6 -5 -6 6 -1 11 2 17 5 13 3 -3 4 -12 1 -19z m13 -138 c0 -5 -2 -10 -4 -10
-3 0 -8 5 -11 10 -3 6 -1 10 4 10 6 0 11 -4 11 -10z m0 -60 c0 -5 -5 -10 -11
-10 -5 0 -7 5 -4 10 3 6 8 10 11 10 2 0 4 -4 4 -10z m-1380 -41 c0 -11 -4 -18
-10 -14 -5 3 -7 12 -3 20 7 21 13 19 13 -6z m1344 -13 c-3 -15 -8 -25 -11 -23
-2 3 -1 17 3 31 3 15 8 25 11 23 2 -3 1 -17 -3 -31z m46 4 c0 -5 -4 -10 -10
-10 -5 0 -10 -7 -10 -17 0 -9 -3 -14 -6 -10 -8 8 5 47 17 47 5 0 9 -4 9 -10z
m-40 -50 c0 -5 -5 -10 -11 -10 -5 0 -7 5 -4 10 3 6 8 10 11 10 2 0 4 -4 4 -10z
m10 -63 c0 -5 -4 -5 -10 -2 -5 3 -10 14 -10 23 0 15 2 15 10 2 5 -8 10 -19 10
-23z m-79 -30 c-10 -9 -11 -8 -5 6 3 10 9 15 12 12 3 -3 0 -11 -7 -18z m66 7
c-3 -3 -12 -4 -19 -1 -8 3 -5 6 6 6 11 1 17 -2 13 -5z m-53 -69 c3 -8 2 -14
-2 -14 -24 4 -34 -3 -27 -18 5 -14 4 -15 -6 -6 -10 10 -9 17 6 33 22 24 21 24
29 5z m-48 -62 c16 -21 18 -37 4 -28 -13 8 -33 45 -24 45 4 0 13 -8 20 -17z
m-6 -57 c0 -5 -7 -1 -15 10 -8 10 -14 24 -14 29 0 6 6 1 14 -9 8 -11 15 -24
15 -30z m-25 -5 c3 -5 2 -12 -3 -15 -5 -3 -9 1 -9 9 0 17 3 19 12 6z m-50 -21
c3 -6 -1 -7 -9 -4 -18 7 -21 14 -7 14 6 0 13 -4 16 -10z m-16 -49 c-13 -11
-26 -18 -28 -15 -7 7 21 34 36 34 10 0 8 -6 -8 -19z m-53 -18 c-10 -10 -19 5
-10 18 6 11 8 11 12 0 2 -7 1 -15 -2 -18z m-36 3 c0 -2 -7 -7 -16 -10 -8 -3
-12 -2 -9 4 6 10 25 14 25 6z m-1057 -61 c14 -25 22 -45 18 -45 -4 0 -16 17
-26 38 -27 53 -27 52 -22 52 3 0 17 -20 30 -45z m17 35 c0 -5 -2 -10 -4 -10
-3 0 -8 5 -11 10 -3 6 -1 10 4 10 6 0 11 -4 11 -10z m-47 -60 c-6 -7 -23 23
-23 40 0 8 6 4 13 -10 8 -14 12 -27 10 -30z m977 40 c0 -5 -5 -10 -11 -10 -5
0 -7 5 -4 10 3 6 8 10 11 10 2 0 4 -4 4 -10z m97 4 c-3 -3 -12 -4 -19 -1 -8 3
-5 6 6 6 11 1 17 -2 13 -5z m-170 -20 c-3 -3 -12 -4 -19 -1 -8 3 -5 6 6 6 11
1 17 -2 13 -5z m-913 -49 c3 -9 0 -15 -9 -15 -9 0 -12 6 -9 15 4 8 7 15 9 15
2 0 5 -7 9 -15z m176 3 c0 -11 -12 -10 -30 2 -12 7 -10 9 8 7 12 0 22 -5 22
-9z m173 -15 c-7 -2 -19 -2 -25 0 -7 3 -2 5 12 5 14 0 19 -2 13 -5z"/>
<path d="M2210 2388 c0 -2 0 -286 0 -631 l-1 -628 401 1 c338 0 408 3 448 16
152 52 266 152 337 300 165 340 42 741 -275 897 l-85 42 -412 3 c-227 2 -413
2 -413 0z m370 -28 c0 -5 -5 -10 -11 -10 -5 0 -7 5 -4 10 3 6 8 10 11 10 2 0
4 -4 4 -10z m40 0 c0 -5 -4 -10 -10 -10 -5 0 -10 5 -10 10 0 6 5 10 10 10 6 0
10 -4 10 -10z m114 -49 c-7 -8 -34 29 -34 46 0 13 5 10 19 -12 10 -16 17 -32
15 -34z m26 55 c0 -11 -19 -15 -25 -6 -3 5 1 10 9 10 9 0 16 -2 16 -4z m-240
-41 c0 -8 -4 -15 -10 -15 -5 0 -10 7 -10 15 0 8 5 15 10 15 6 0 10 -7 10 -15z
m54 0 c-4 -8 -8 -15 -10 -15 -2 0 -4 7 -4 15 0 8 4 15 10 15 5 0 7 -7 4 -15z
m426 5 c0 -5 -4 -10 -10 -10 -5 0 -10 5 -10 10 0 6 5 10 10 10 6 0 10 -4 10
-10z m-650 -10 c0 -5 -4 -10 -10 -10 -5 0 -10 5 -10 10 0 6 5 10 10 10 6 0 10
-4 10 -10z m270 -6 c0 -8 -5 -12 -10 -9 -6 4 -8 11 -5 16 9 14 15 11 15 -7z
m290 6 c0 -5 -7 -10 -16 -10 -8 0 -12 5 -9 10 3 6 10 10 16 10 5 0 9 -4 9 -10z
m185 -18 c-3 -3 -11 0 -18 7 -9 10 -8 11 6 5 10 -3 15 -9 12 -12z m-35 -12 c0
-5 -2 -10 -4 -10 -3 0 -8 5 -11 10 -3 6 -1 10 4 10 6 0 11 -4 11 -10z m80 0
c0 -5 -4 -10 -10 -10 -5 0 -10 5 -10 10 0 6 5 10 10 10 6 0 10 -4 10 -10z m26
-17 c-10 -10 -19 5 -10 18 6 11 8 11 12 0 2 -7 1 -15 -2 -18z m-78 -32 c77
-42 170 -139 206 -215 42 -89 69 -210 64 -291 -13 -207 -117 -380 -278 -462
l-75 -38 -345 0 -345 0 0 520 0 520 185 5 c102 3 262 3 355 0 l170 -5 63 -34z
m99 17 c-3 -8 -6 -5 -6 6 -1 11 2 17 5 13 3 -3 4 -12 1 -19z m-47 2 c0 -5 -4
-10 -10 -10 -5 0 -10 5 -10 10 0 6 5 10 10 10 6 0 10 -4 10 -10z m70 -25 c-7
-9 -15 -13 -19 -10 -3 3 1 10 9 15 21 14 24 12 10 -5z m-973 -27 c-3 -7 -5 -2
-5 12 0 14 2 19 5 13 2 -7 2 -19 0 -25z m1039 -13 c-2 -6 5 -17 15 -23 20 -13
26 -32 9 -32 -5 0 -10 6 -10 14 0 20 -33 25 -47 6 -10 -13 -11 -11 -6 8 3 12
10 22 15 22 6 0 8 9 5 21 -5 17 -3 18 9 8 8 -7 13 -17 10 -24z m-36 15 c0 -5
-4 -10 -10 -10 -5 0 -10 5 -10 10 0 6 5 10 10 10 6 0 10 -4 10 -10z m-27 -20
c3 -11 1 -20 -4 -20 -5 0 -9 2 -9 4 0 2 -3 11 -6 20 -3 9 -2 16 4 16 5 0 12
-9 15 -20z m-976 -32 c-3 -7 -5 -2 -5 12 0 14 2 19 5 13 2 -7 2 -19 0 -25z
m1053 -61 c0 -6 -7 -2 -15 9 -8 10 -14 28 -15 39 0 16 3 14 15 -9 8 -15 15
-33 15 -39z m59 -40 c1 -5 -3 -5 -9 -2 -5 3 -10 16 -9 28 0 21 1 21 9 2 5 -11
9 -24 9 -28z m41 -12 c7 -9 8 -15 2 -15 -5 0 -12 7 -16 15 -3 8 -4 15 -2 15 2
0 9 -7 16 -15z m-19 -22 c13 -16 12 -17 -3 -4 -10 7 -18 15 -18 17 0 8 8 3 21
-13z m-1101 -77 c0 -3 -4 -8 -10 -11 -5 -3 -10 -1 -10 4 0 6 5 11 10 11 6 0
10 -2 10 -4z m1130 -22 c0 -8 -4 -12 -10 -9 -5 3 -10 1 -10 -6 0 -7 -3 -9 -6
-6 -4 4 -1 13 6 22 16 19 20 19 20 -1z m30 -36 c-1 -26 -3 -30 -10 -16 -6 9
-7 23 -4 32 9 25 14 19 14 -16z m-1175 -78 c3 -5 2 -10 -4 -10 -5 0 -13 5 -16
10 -3 6 -2 10 4 10 5 0 13 -4 16 -10z m2 -92 c-3 -7 -5 -2 -5 12 0 14 2 19 5
13 2 -7 2 -19 0 -25z m-14 -38 c3 -11 1 -23 -4 -26 -5 -3 -9 6 -9 20 0 31 6
34 13 6z m1154 -87 c-3 -10 -5 -2 -5 17 0 19 2 27 5 18 2 -10 2 -26 0 -35z
m-1147 1 c0 -8 -5 -12 -10 -9 -6 4 -8 11 -5 16 9 14 15 11 15 -7z m1125 -104
c-10 -11 -23 -20 -29 -20 -6 0 1 11 14 24 30 28 41 25 15 -4z m-1085 -68 c0
-7 -4 -10 -10 -7 -5 3 -10 16 -10 28 0 18 2 19 10 7 5 -8 10 -21 10 -28z
m1044 23 c-4 -8 -8 -15 -10 -15 -2 0 -4 7 -4 15 0 8 4 15 10 15 5 0 7 -7 4
-15z m31 -5 c3 -5 1 -10 -4 -10 -6 0 -11 5 -11 10 0 6 2 10 4 10 3 0 8 -4 11
-10z m-85 -85 c0 -8 -4 -15 -10 -15 -5 0 -10 7 -10 15 0 8 5 15 10 15 6 0 10
-7 10 -15z m-16 -40 c-4 -8 -10 -15 -15 -15 -4 0 -6 7 -3 15 4 8 10 15 15 15
4 0 6 -7 3 -15z m-64 -9 c0 -3 -4 -8 -10 -11 -5 -3 -10 -1 -10 4 0 6 5 11 10
11 6 0 10 -2 10 -4z m30 -22 c0 -8 -5 -12 -10 -9 -6 4 -8 11 -5 16 9 14 15 11
15 -7z m-50 -19 c0 -8 -3 -16 -7 -18 -5 -3 -8 5 -8 18 0 13 3 21 8 18 4 -2 7
-10 7 -18z m-52 -35 c7 0 10 5 6 12 -5 7 -3 8 5 3 19 -11 -3 -28 -28 -20 -12
3 -21 11 -21 18 0 8 3 8 12 -1 7 -7 18 -12 26 -12z m-28 -22 c0 -13 -23 -5
-28 10 -2 7 2 10 12 6 9 -3 16 -11 16 -16z m-75 2 c-3 -5 -11 -10 -16 -10 -6
0 -7 5 -4 10 3 6 11 10 16 10 6 0 7 -4 4 -10z m-225 -10 c8 -5 11 -10 5 -10
-5 0 -17 5 -25 10 -8 5 -10 10 -5 10 6 0 17 -5 25 -10z m10 -30 c0 -5 -4 -10
-10 -10 -5 0 -10 5 -10 10 0 6 5 10 10 10 6 0 10 -4 10 -10z m-430 -16 c0 -2
-7 -4 -15 -4 -8 0 -15 4 -15 10 0 5 7 7 15 4 8 -4 15 -8 15 -10z"/>
<path d="M2337 2253 c-3 -5 -4 -231 -4 -503 l2 -495 290 -1 c160 -1 319 3 355
8 106 14 214 93 274 198 17 30 31 57 32 60 0 3 4 12 7 20 32 73 42 135 40 245
-4 206 -123 389 -295 455 -49 19 -76 20 -375 20 -177 0 -324 -3 -326 -7z m96
-20 c-7 -2 -19 -2 -25 0 -7 3 -2 5 12 5 14 0 19 -2 13 -5z m140 0 c-13 -2 -33
-2 -45 0 -13 2 -3 4 22 4 25 0 35 -2 23 -4z m54 1 c-3 -3 -12 -4 -19 -1 -8 3
-5 6 6 6 11 1 17 -2 13 -5z m70 0 c-3 -3 -12 -4 -19 -1 -8 3 -5 6 6 6 11 1 17
-2 13 -5z m66 -1 c-7 -2 -21 -2 -30 0 -10 3 -4 5 12 5 17 0 24 -2 18 -5z m85
0 c-10 -2 -28 -2 -40 0 -13 2 -5 4 17 4 22 1 32 -1 23 -4z m122 -3 c0 -5 -4
-10 -9 -10 -6 0 -13 5 -16 10 -3 6 1 10 9 10 9 0 16 -4 16 -10z m-538 -35 c3
-14 1 -25 -3 -25 -5 0 -9 11 -9 25 0 14 2 25 4 25 2 0 6 -11 8 -25z m35 -7
c-3 -7 -5 -2 -5 12 0 14 2 19 5 13 2 -7 2 -19 0 -25z m153 22 c0 -5 -4 -10
-10 -10 -5 0 -10 5 -10 10 0 6 5 10 10 10 6 0 10 -4 10 -10z m68 -7 c-2 -9 -8
-18 -15 -20 -7 -3 -9 3 -6 16 6 25 26 28 21 4z m43 -10 c-8 -15 -10 -15 -11
-2 0 17 10 32 18 25 2 -3 -1 -13 -7 -23z m189 17 c0 -5 -2 -10 -4 -10 -3 0 -8
5 -11 10 -3 6 -1 10 4 10 6 0 11 -4 11 -10z m70 -10 c0 -5 -2 -10 -4 -10 -3 0
-8 5 -11 10 -3 6 -1 10 4 10 6 0 11 -4 11 -10z m-175 -18 c-3 -3 -11 0 -18 7
-9 10 -8 11 6 5 10 -3 15 -9 12 -12z m215 12 c0 -3 -7 -12 -15 -20 -12 -13
-15 -13 -15 -1 0 7 3 17 7 20 8 8 23 9 23 1z m53 -8 c3 -7 1 -18 -5 -24 -7 -7
0 -19 21 -40 17 -16 31 -33 31 -37 0 -5 -16 8 -36 28 -20 19 -33 41 -29 47 4
6 1 17 -5 25 -10 12 -9 15 3 15 8 0 17 -6 20 -14z m-33 -21 c0 -8 -4 -15 -10
-15 -5 0 -7 7 -4 15 4 8 8 15 10 15 2 0 4 -7 4 -15z m-680 -10 c0 -8 -2 -15
-4 -15 -2 0 -6 7 -10 15 -3 8 -1 15 4 15 6 0 10 -7 10 -15z m630 -16 c57 -20
144 -94 156 -134 4 -11 12 -27 19 -35 39 -45 59 -236 35 -335 -31 -126 -154
-265 -235 -265 -9 0 -14 -3 -12 -7 3 -5 -113 -6 -256 -3 l-262 5 -3 385 c-1
212 0 391 3 398 3 9 61 12 252 11 213 -2 256 -4 303 -20z m136 -6 l2 -24 -19
22 c-23 27 -23 25 -1 25 11 0 18 -9 18 -23z m-769 -50 c-3 -10 -5 -4 -5 12 0
17 2 24 5 18 2 -7 2 -21 0 -30z m838 6 c11 -16 1 -19 -13 -3 -7 8 -8 14 -3 14
5 0 13 -5 16 -11z m-5 -39 c0 -5 -2 -10 -4 -10 -3 0 -8 5 -11 10 -3 6 -1 10 4
10 6 0 11 -4 11 -10z m36 -41 c3 -6 1 -15 -5 -20 -6 -5 -9 -6 -6 -3 3 4 0 13
-6 21 -8 9 -8 13 -1 13 6 0 14 -5 18 -11z m29 -53 c0 -14 -3 -22 -7 -20 -4 3
-7 16 -6 29 3 30 11 23 13 -9z m-878 -28 c-3 -8 -6 -5 -6 6 -1 11 2 17 5 13 3
-3 4 -12 1 -19z m880 -28 c7 0 13 5 13 10 0 6 5 10 10 10 11 0 -20 -49 -31
-50 -4 0 -9 8 -12 18 -2 9 -8 26 -11 37 -5 15 -4 15 5 -2 7 -13 18 -23 26 -23z
m25 -48 c-7 -2 -12 -10 -12 -18 0 -9 -4 -12 -10 -9 -6 4 -3 16 7 32 12 17 19
21 22 12 2 -7 -1 -15 -7 -17z m3 -52 c-3 -5 -11 -10 -16 -10 -6 0 -7 5 -4 10
3 6 11 10 16 10 6 0 7 -4 4 -10z m-35 -38 c0 -15 -2 -15 -10 -2 -13 20 -13 33
0 25 6 -3 10 -14 10 -23z m31 -35 c-8 -8 -11 -7 -11 4 0 20 13 34 18 19 3 -7
-1 -17 -7 -23z m-12 -64 c14 -11 23 -24 20 -28 -4 -3 -14 2 -23 11 -24 23 -33
9 -11 -16 10 -11 13 -20 8 -20 -19 0 -30 25 -30 70 -1 25 1 36 4 25 3 -11 17
-30 32 -42z m-39 -63 c0 -5 -5 -10 -11 -10 -5 0 -7 5 -4 10 3 6 8 10 11 10 2
0 4 -4 4 -10z m30 -10 c0 -5 -2 -10 -4 -10 -3 0 -8 5 -11 10 -3 6 -1 10 4 10
6 0 11 -4 11 -10z m-50 -20 c0 -5 -5 -10 -11 -10 -5 0 -7 5 -4 10 3 6 8 10 11
10 2 0 4 -4 4 -10z m50 -26 c0 -3 -6 -2 -13 4 -9 8 -21 -2 -47 -42 -22 -33
-38 -49 -42 -42 -6 8 -11 6 -18 -4 -7 -10 -10 -11 -10 -2 0 7 11 17 24 21 13
5 36 30 51 54 24 37 31 42 42 32 7 -8 13 -17 13 -21z m-883 -36 c-3 -8 -6 -5
-6 6 -1 11 2 17 5 13 3 -3 4 -12 1 -19z m863 1 c0 -11 -4 -18 -10 -14 -5 3 -7
12 -3 20 7 21 13 19 13 -6z m-25 -29 c3 -5 1 -10 -4 -10 -6 0 -11 5 -11 10 0
6 2 10 4 10 3 0 8 -4 11 -10z m-61 -55 c-4 -8 -13 -15 -21 -15 -13 0 -13 3 -3
15 7 8 16 15 21 15 5 0 6 -7 3 -15z m30 -10 c3 -8 1 -15 -4 -15 -6 0 -10 7
-10 15 0 8 2 15 4 15 2 0 6 -7 10 -15z m-774 -26 c0 -14 -17 -10 -23 5 -4 10
-1 13 9 9 7 -3 14 -9 14 -14z m640 -19 c-8 -6 -12 -10 -7 -10 9 0 -30 -40 -40
-40 -3 0 2 9 12 20 14 15 15 20 4 20 -8 0 -3 6 11 13 27 15 44 12 20 -3z
m-621 -16 c13 -12 -8 -10 -29 2 l-25 15 25 -7 c14 -3 27 -8 29 -10z m571 -4
c0 -5 -5 -10 -11 -10 -5 0 -7 5 -4 10 3 6 8 10 11 10 2 0 4 -4 4 -10z m80 6
c0 -3 -4 -8 -10 -11 -5 -3 -10 -1 -10 4 0 6 5 11 10 11 6 0 10 -2 10 -4z
m-463 -22 c-3 -3 -12 -4 -19 -1 -8 3 -5 6 6 6 11 1 17 -2 13 -5z m263 -44 c0
-5 -7 -10 -16 -10 -8 0 -12 5 -9 10 3 6 10 10 16 10 5 0 9 -4 9 -10z m-277 -7
c-7 -2 -19 -2 -25 0 -7 3 -2 5 12 5 14 0 19 -2 13 -5z"/>
<path d="M2464 2131 c-2 -2 -4 -173 -4 -378 l0 -374 263 3 262 3 47 27 c25 15
60 46 77 67 35 44 90 158 90 187 0 11 1 55 1 99 1 53 -5 99 -18 135 -21 65
-85 168 -110 177 -9 4 -23 13 -30 20 -28 27 -101 35 -335 37 -131 0 -241 -1
-243 -3z m501 -41 c3 -5 -1 -10 -10 -10 -9 0 -13 5 -10 10 3 6 8 10 10 10 2 0
7 -4 10 -10z m-275 -10 c0 -5 -2 -10 -4 -10 -3 0 -8 5 -11 10 -3 6 -1 10 4 10
6 0 11 -4 11 -10z m314 -32 c-4 -6 0 -14 7 -19 7 -4 10 -11 7 -15 -4 -3 -14 1
-23 9 -9 10 -11 18 -5 22 6 4 7 11 4 17 -4 7 -2 8 5 4 6 -4 8 -12 5 -18z
m-434 2 c0 -5 -4 -10 -10 -10 -5 0 -10 5 -10 10 0 6 5 10 10 10 6 0 10 -4 10
-10z m87 -6 c-3 -3 -12 -4 -19 -1 -8 3 -5 6 6 6 11 1 17 -2 13 -5z m300 0 c-3
-3 -12 -4 -19 -1 -8 3 -5 6 6 6 11 1 17 -2 13 -5z m103 -4 c-20 -13 -33 -13
-25 0 3 6 14 10 23 10 15 0 15 -2 2 -10z m20 -15 c-6 -8 -9 -19 -6 -24 9 -13
-9 -22 -28 -15 -14 5 -12 10 11 30 32 27 41 31 23 9z m-563 -10 c-4 -8 -2 -17
3 -20 6 -4 10 -12 10 -18 -1 -14 -23 22 -26 41 -1 6 2 12 8 12 6 0 8 -7 5 -15z
m456 -7 c32 -19 64 -57 89 -108 18 -37 22 -62 21 -140 0 -113 -14 -155 -72
-216 -32 -34 -48 -44 -74 -44 -17 0 -105 -1 -195 -2 l-163 -1 -2 262 -2 261
188 0 c131 0 194 -4 210 -12z m130 -33 c-6 -17 -23 -20 -23 -5 0 6 5 10 11 10
5 0 7 5 3 12 -4 7 -3 8 4 4 6 -4 9 -13 5 -21z m37 -15 c0 -5 -4 -10 -10 -10
-5 0 -10 5 -10 10 0 6 5 10 10 10 6 0 10 -4 10 -10z m-593 -47 c-3 -10 -5 -4
-5 12 0 17 2 24 5 18 2 -7 2 -21 0 -30z m573 17 c0 -5 -2 -10 -4 -10 -3 0 -8
5 -11 10 -3 6 -1 10 4 10 6 0 11 -4 11 -10z m40 -54 c0 -8 3 -23 6 -33 5 -16
4 -16 -10 1 -18 22 -21 46 -6 46 6 0 10 -6 10 -14z m-610 -28 c-1 -26 -3 -30
-10 -16 -6 9 -7 23 -4 32 9 25 14 19 14 -16z m602 -50 c-7 -7 -12 -8 -12 -2 0
14 12 26 19 19 2 -3 -1 -11 -7 -17z m26 -47 c4 -28 -13 -20 -21 9 -3 14 -1 20
6 17 7 -2 14 -14 15 -26z m-8 -52 c0 -5 -4 -9 -10 -9 -5 0 -10 7 -10 16 0 8 5
12 10 9 6 -3 10 -10 10 -16z m-5 -29 c3 -5 1 -10 -4 -10 -6 0 -11 5 -11 10 0
6 2 10 4 10 3 0 8 -4 11 -10z m-85 -108 c0 -5 -7 -9 -15 -9 -8 0 -12 4 -9 9 3
4 9 8 15 8 5 0 9 -4 9 -8z m50 -6 c0 -3 -4 -8 -10 -11 -5 -3 -10 -1 -10 4 0 6
5 11 10 11 6 0 10 -2 10 -4z m-51 -29 c-2 -1 -13 -9 -24 -17 -19 -14 -19 -14
-6 3 7 9 18 17 24 17 6 0 8 -1 6 -3z m-518 -34 c23 -47 22 -49 -5 -14 -29 38
-30 41 -18 41 5 0 15 -12 23 -27z m-51 7 c0 -5 -2 -10 -4 -10 -3 0 -8 5 -11
10 -3 6 -1 10 4 10 6 0 11 -4 11 -10z m570 -10 c0 -5 -4 -10 -10 -10 -5 0 -10
5 -10 10 0 6 5 10 10 10 6 0 10 -4 10 -10z m-540 -31 c0 -6 -4 -7 -10 -4 -5 3
-10 11 -10 16 0 6 5 7 10 4 6 -3 10 -11 10 -16z m110 1 c0 -5 -7 -10 -16 -10
-8 0 -12 5 -9 10 3 6 10 10 16 10 5 0 9 -4 9 -10z m84 -8 c3 -5 -1 -9 -9 -9
-8 0 -15 4 -15 9 0 4 4 8 9 8 6 0 12 -4 15 -8z m296 -6 c0 -8 -4 -17 -8 -20
-4 -2 -8 4 -8 15 0 10 4 19 8 19 4 0 8 -6 8 -14z m-510 -17 c0 -6 -4 -7 -10
-4 -5 3 -10 11 -10 16 0 6 5 7 10 4 6 -3 10 -11 10 -16z m470 11 c0 -5 -5 -10
-11 -10 -5 0 -7 5 -4 10 3 6 8 10 11 10 2 0 4 -4 4 -10z m-75 -10 c3 -5 1 -10
-4 -10 -6 0 -11 5 -11 10 0 6 2 10 4 10 3 0 8 -4 11 -10z m-302 -7 c-7 -2 -19
-2 -25 0 -7 3 -2 5 12 5 14 0 19 -2 13 -5z m197 -13 c0 -5 -5 -10 -11 -10 -5
0 -7 5 -4 10 3 6 8 10 11 10 2 0 4 -4 4 -10z m65 0 c3 -5 1 -10 -4 -10 -6 0
-11 5 -11 10 0 6 2 10 4 10 3 0 8 -4 11 -10z"/>
<path d="M2618 1993 c-17 -4 -18 -24 -18 -239 l0 -234 168 1 c157 2 218 11
206 30 -3 5 3 6 12 2 14 -5 16 -3 11 11 -5 14 -3 17 8 12 18 -7 21 20 3 28 -7
3 -4 4 6 3 15 -2 22 8 33 48 13 52 18 115 9 150 -20 86 -31 117 -55 146 -15
18 -34 33 -43 35 -9 1 -31 5 -49 8 -25 4 -29 4 -14 -3 15 -7 16 -10 4 -10 -9
-1 -19 2 -23 6 -8 8 -230 13 -258 6z"/>
<path d="M4500 1820 l0 -1660 -2250 0 -2250 0 0 -80 0 -80 2355 0 2355 0 0
1740 0 1740 -105 0 -105 0 0 -1660z"/>
</g>
</svg>
